#!OML:ASF F:\VICON\USERDATA\INSTALL\rory3\rory3.ASF
:FULLY-SPECIFIED
:DEGREES
19
root -0.6419760317479691 17.68320093248506 -13.63869065038759 -1.443402326311638 6.873764402984101 -3.8860754810843834
lfemur -23.751495920870408 -3.5018230004608584 -21.614798867659587
ltibia 40.959604633339474
lfoot -11.770491996728364 -10.71139388743888
ltoes -1.5494390239154843
rfemur -7.6380753301989905 -2.109073517608749 27.04960375529271
rtibia 96.09898865247399
rfoot 21.073189087599005 -13.16358962457693
rtoes 16.75529106259753
lowerback 16.497294635484977 1.0708685913804965 2.7687665359482985
upperback -0.08104018777185096 2.0672180383900507 1.1520152444739202
thorax -9.314926447008249 0.8915203793086182 -0.8248265632379427
lowerneck -18.957109094300737 -5.346237068944437 -1.6914257463877636
upperneck 15.2428908125415 -7.620285747627456 4.051617609656949
head 8.059281610746092 -3.300166925302631 0.6760169325131471
lclavicle -1.7288339579140553e-15 1.783627740629379e-15
lhumerus -61.08469310126232 -12.545202548319788 100.14099148708108
lradius 104.07300444904128
lwrist 33.45060031305122
lhand -25.856195481089546 0.7974909758354536
lfingers 7.12502
lthumb 0.684611519400963 30.77610395177544
rclavicle -1.7288339579140553e-15 1.783627740629379e-15
rhumerus -48.45430221697046 14.403489815674888 -101.75298744529049
rradius 104.67300786406638
rwrist -7.877918230301855
rhand -19.721584468400557 40.739094005457744
rfingers 7.12502
rthumb 6.608565532168662 10.86219468936517
20
root -0.6466339103870664 17.47490431414389 -12.685891039268492 -1.142003884183656 6.63226503288362 -2.5196102223006083
lfemur -22.37229655418441 -3.797762318587235 -23.29889628152626
ltibia 45.081003001255546
lfoot -17.15248826865023 -7.689818902664648
ltoes 2.0965073225176187
rfemur -13.30770288516755 -3.7861098897905276 23.90240920158558
rtibia 102.40698647708163
rfoot 20.9978891398462 -9.95280439973143
rtoes 15.041692191438207
lowerback 16.84359273138025 1.0303288417645033 0.9001372992779871
upperback 0.15045853836227496 1.6215396971318086 0.8064198388995274
thorax -9.309296525011272 0.7562996184504949 -0.03689989538283012
lowerneck -19.70270474383185 -5.254087752484087 -1.3674711134684912
upperneck 15.087891778435758 -7.553946082323309 3.969378362841346
head 8.117170200135464 -3.248607496699133 0.5904370412084002
lclavicle -1.7288340642170575e-15 1.7836277577894746e-15
lhumerus -56.90879589786926 -14.232599849969652 100.17699136519632
lradius 104.53000395767764
lwrist 34.90129571553891
lhand -24.961000402569145 0.056295737182686656
lfingers 7.12502
lthumb 1.5492695971520145 30.030406436413436
rclavicle -1.7288340642170575e-15 1.7836277577894746e-15
rhumerus -49.23730147087694 13.324791676259078 -101.86498716016362
rradius 101.65501299726837
rwrist -6.520573173385253
rhand -22.246571700123983 37.443715014804695
rfingers 7.12502
rthumb 4.170698307340958 7.504846518230566
21
root -0.5044659376837763 17.03085113257921 0.8915368176922076 1.4307893338288622 4.493854712064716 0.305380293341861
lfemur -19.53727923302163 0.4712670334395706 -26.363706389801088
ltibia 48.6472479030323
lfoot -20.016914531665112 -0.7689409073752698
ltoes 1.4662839982027158
rfemur -18.145781601718483 -4.901522450622725 21.92695391266308
rtibia 112.75126361972039
rfoot 14.427931618816963 -8.192148452709667
rtoes 22.772228533481382
lowerback 17.360640067285004 1.8270461831148743 -1.9179064663776983
upperback -0.20611415040910475 2.0654569201779345 -0.190677594086897
thorax -10.23971070476872 1.0573334162013452 0.9871305482041772
lowerneck -20.27985422638999 -4.793890398633572 -1.617846965463567
upperneck 13.487395568580872 -6.844403318951303 4.48041865157173
head 7.724334079554191 -2.8944683503070032 1.0618355910659538
lclavicle -8.36360755940456e-16 2.4299574554927985e-15
lhumerus -49.4023241209337 -17.78817220788146 100.73360398468495
lradius 105.06029279424274
lwrist 32.935739801856705
lhand -25.77890899607948 3.104744081648903
lfingers 7.12502
lthumb 0.7593077720343194 33.07739963966359
rclavicle -8.36360755940456e-16 2.4299574554927985e-15
rhumerus -48.1477252268256 8.506737896587632 -100.7934215666848
rradius 100.07479482792645
rwrist -6.979872383872381
rhand -18.428374599375307 38.72490647606621
rfingers 7.12502
rthumb 7.855947636545061 8.664059364236596
22
root -0.48430085309527693 16.843653197457076 -3.3304281509457336 1.9640450836990722 3.5799270814869564 0.8922901737424729
lfemur -18.090715695604366 0.9001318703357291 -26.95264633201333
ltibia 50.64063782413965
lfoot -24.55935542872196 2.4747723366604815
ltoes -0.3483195165953745
rfemur -26.693553012167843 -5.605155048520734 20.288812496967562
rtibia 119.52470879398484
rfoot 10.873905129153172 -7.385484597900281
rtoes 20.484131305709855
lowerback 17.89706783673209 1.8249855454609947 -3.1402234157279985
upperback 0.032147717063281345 1.8129194264545472 -0.4071732481773389
thorax -10.434921094613403 0.9964381307322692 1.4961352283450462
lowerneck -20.936042738371 -4.719448053560053 -1.6028959521006967
upperneck 12.584582880350228 -6.743789944853655 4.6325496122098055
head 7.556476370405069 -2.830965958607497 1.1318959732332834
lclavicle -1.6378140902830438e-15 1.848221853804397e-15
lhumerus -44.68065243267771 -20.135938631869994 100.64652515938617
lradius 104.47643609954842
lwrist 32.794813249295856
lhand -26.062446113514095 3.3760078988063436
lfingers 7.12502
lthumb 0.48549938021471395 33.34240386887032
rclavicle -1.6378140902830438e-15 1.848221853804397e-15
rhumerus -49.81305089021135 6.814030114568952 -101.29471771854321
rradius 98.63581003420315
rwrist -7.304347252927865
rhand -18.08309802108717 38.83598732312517
rfingers 7.12502
rthumb 8.189181879910707 8.808306912507094
